<svg xmlns="http://www.w3.org/2000/svg" viewBox="0 0 200 200">
  <defs>
    <linearGradient id="b" x1="0" x2="1">
      <stop offset="0" stop-color="#7c3aed"/>
      <stop offset="1" stop-color="#06b6d4"/>
    </linearGradient>
  </defs>
  <path d="M44.7,-54.8C57.7,-45.8,67.6,-33.6,69,-20.6C70.4,-7.7,63.4,6,56.7,17.5C50,29,43.6,38.4,33,46.1C22.3,53.8,7.5,59.8,-5.4,63.3C-18.3,66.8,-36.6,67.9,-51.7,60.2C-66.8,52.5,-78.7,36.1,-82.9,18.6C-87.2,1.1,-83.9,-17.6,-76.1,-33.6C-68.3,-49.6,-55.9,-62.8,-40.1,-69.9C-24.3,-76.9,-12.1,-77.9,0.7,-78.9C13.4,-79.9,26.9,-80.8,44.7,-54.8Z" transform="translate(100 100)" fill="url(#b)"/>
</svg>